<svg width="459" height="444" viewBox="0 0 459 444" fill="none" xmlns="http://www.w3.org/2000/svg">
<path d="M229.141 2.5C301.197 2.50016 359.719 62.448 359.719 136.533C359.719 149.494 357.921 162.04 354.567 173.912L353.869 176.386L356.36 177.016C367.677 179.876 378.8 184.348 389.418 190.51L390.444 191.111C452.413 227.817 474.008 308.821 439.086 372.735L438.25 374.241C402.173 438.35 322.331 460.264 259.913 423.293H259.914C248.987 416.819 239.306 408.959 230.966 400.049L229.141 398.099L227.315 400.049C219.238 408.68 209.898 416.328 199.386 422.684L198.365 423.295C136.437 459.977 57.3532 438.692 20.8838 375.739L20.0303 374.244C-15.7842 310.6 5.04824 229.388 66.3799 191.988L67.8359 191.112C78.7635 184.639 90.2369 179.97 101.919 177.017L104.411 176.387L103.713 173.914C100.359 162.041 98.5615 149.495 98.5615 136.533C98.5617 63.0266 156.173 3.43728 227.454 2.51074L229.141 2.5ZM121.234 214.445C110.038 215.945 98.932 219.618 88.4766 225.635L87.4668 226.225C43.8391 252.068 28.9378 309.246 54.0889 353.94C79.0638 398.322 134.197 413.806 177.709 388.78L178.734 388.182C192.698 379.91 203.679 368.472 211.371 355.274L212.105 353.991C225.98 329.3 228.494 298.772 217.37 271.374L216.809 269.989L215.322 269.829L213.562 269.626C176.65 265.119 144.457 244.798 123.604 215.474L122.729 214.244L121.234 214.445ZM325.226 213.66C297.392 213.679 270.328 226.739 252.751 250.339L251.887 251.499L252.462 252.827C267.876 288.362 267.009 327.875 252.447 361.604L251.874 362.932L252.739 364.091C259.595 373.275 268.239 381.298 278.543 387.577L279.545 388.18C322.871 413.844 378.147 398.907 403.595 354.981L404.19 353.938C429.146 309.595 414.672 252.959 371.83 226.834L370.812 226.223L369.457 225.436C355.871 217.696 341.203 213.899 326.678 213.671L325.226 213.66ZM229.141 43.0107C178.701 43.0107 137.921 84.9432 137.921 136.533C137.921 153.05 142.08 168.516 149.375 181.949L150.091 183.243C163.999 207.919 188.539 225.451 217.286 229.276L218.783 229.476L219.656 228.244C241.935 196.793 275.687 177.835 311.386 173.912L312.869 173.749L313.43 172.365C317.894 161.342 320.359 149.248 320.359 136.533C320.359 84.9432 279.578 43.0109 229.141 43.0107Z" stroke="white" stroke-width="5"/>
</svg>
