<svg width="500" height="500" viewBox="0 0 500 500" fill="none" xmlns="http://www.w3.org/2000/svg">
<path d="M250 2.5C386.689 2.5 497.5 113.309 497.5 250C497.5 386.689 386.689 497.5 250 497.5C113.309 497.5 2.5 386.689 2.5 250C2.5 113.309 113.309 2.5 250 2.5ZM250 47.5C138.162 47.5 47.5 138.162 47.5 250C47.5 361.838 138.162 452.5 250 452.5C361.838 452.5 452.5 361.838 452.5 250C452.5 138.162 361.838 47.5 250 47.5ZM250 102.5C331.462 102.5 397.5 168.538 397.5 250C397.5 331.462 331.462 397.5 250 397.5C168.538 397.5 102.5 331.462 102.5 250C102.5 168.538 168.538 102.5 250 102.5ZM250 147.5C193.391 147.5 147.5 193.391 147.5 250C147.5 306.608 193.391 352.5 250 352.5C306.608 352.5 352.5 306.608 352.5 250C352.5 193.391 306.608 147.5 250 147.5ZM250 202.5C276.234 202.5 297.5 223.766 297.5 250C297.5 276.234 276.234 297.5 250 297.5C223.766 297.5 202.5 276.234 202.5 250C202.5 223.766 223.766 202.5 250 202.5Z" stroke="white" stroke-width="5"/>
</svg>
