<svg width="500" height="500" viewBox="0 0 500 500" fill="none" xmlns="http://www.w3.org/2000/svg">
<path d="M375 112.89C442.403 112.89 497.5 174.009 497.5 250C497.5 325.992 442.403 387.11 375 387.11C335.636 387.11 306.817 370.505 284.437 345.986L283.376 344.813C263.522 322.636 248.77 294.113 235.724 267.95L233.136 262.751V262.75L232.37 261.212C218.075 232.471 205.386 207.287 188.99 188.634L188.207 187.751C172.381 170.075 153.191 158.657 125 158.657C79.4348 158.657 42.9541 199.82 42.9541 250C42.9541 300.18 79.4348 341.343 125 341.343C153.977 341.343 179.325 324.644 193.896 299.619C200.218 312.246 207.665 326.666 216.457 341.212C193.978 369.427 161.302 387.11 125 387.11C57.5977 387.11 2.5 325.992 2.5 250C2.50001 174.009 57.5978 112.89 125 112.89C164.363 112.89 193.182 129.496 215.562 154.015L216.624 155.188C236.478 177.363 251.23 205.887 264.276 232.05L266.863 237.249L266.864 237.25L267.63 238.788C281.925 267.529 294.614 292.713 311.011 311.365L311.794 312.248C327.619 329.925 346.809 341.343 375 341.343C420.565 341.343 457.046 300.18 457.046 250C457.046 199.82 420.565 158.657 375 158.657C346.022 158.657 320.674 175.356 306.104 200.381C299.781 187.753 292.335 173.332 283.542 158.786C306.021 130.572 338.697 112.89 375 112.89Z" stroke="white" stroke-width="5"/>
<path d="M398.799 375C398.799 442.403 337.68 497.5 261.688 497.5C185.697 497.5 124.578 442.403 124.578 375C124.578 335.636 141.184 306.817 165.702 284.437L166.875 283.376C189.052 263.522 217.576 248.77 243.738 235.724L248.938 233.136H248.938L250.477 232.37C279.218 218.075 304.402 205.386 323.055 188.99L323.938 188.207C341.613 172.381 353.031 153.191 353.031 125C353.031 79.4348 311.869 42.9541 261.688 42.9541C211.508 42.9541 170.346 79.4348 170.346 125C170.346 153.977 187.045 179.325 212.069 193.896C199.442 200.218 185.023 207.665 170.477 216.457C142.261 193.978 124.578 161.302 124.578 125C124.578 57.5977 185.697 2.5 261.688 2.5C337.68 2.50001 398.799 57.5978 398.799 125C398.799 164.363 382.193 193.182 357.674 215.562L356.501 216.624C334.326 236.478 305.801 251.23 279.639 264.276L274.439 266.863L274.438 266.864L272.9 267.63C244.159 281.925 218.975 294.614 200.323 311.011L199.44 311.794C181.763 327.619 170.346 346.809 170.346 375C170.346 420.565 211.508 457.046 261.688 457.046C311.869 457.046 353.031 420.565 353.031 375C353.031 346.022 336.333 320.674 311.308 306.104C323.936 299.781 338.356 292.335 352.902 283.542C381.117 306.021 398.799 338.697 398.799 375Z" stroke="white" stroke-width="5"/>
</svg>
