<svg width="500" height="500" viewBox="0 0 500 500" fill="none" xmlns="http://www.w3.org/2000/svg">
<path d="M346.465 400L250 496.465L153.535 400L250 303.535L346.465 400ZM196.465 250L100 346.465L3.53516 250L100 153.535L196.465 250ZM496.465 250L400 346.465L303.535 250L400 153.535L496.465 250ZM250 202.5C276.234 202.5 297.5 223.766 297.5 250C297.5 276.234 276.234 297.5 250 297.5C223.766 297.5 202.5 276.234 202.5 250C202.5 223.766 223.766 202.5 250 202.5ZM346.465 100L250 196.465L153.535 100L250 3.53516L346.465 100Z" stroke="white" stroke-width="5"/>
</svg>
