<svg width="500" height="500" viewBox="0 0 500 500" fill="none" xmlns="http://www.w3.org/2000/svg">
<path d="M250 0.5C387.794 0.5 499.5 112.205 499.5 250C499.5 387.794 387.794 499.5 250 499.5C112.205 499.5 0.5 387.794 0.5 250C0.5 112.205 112.205 0.5 250 0.5ZM250 49.5C139.267 49.5 49.5 139.267 49.5 250C49.5 360.734 139.267 450.5 250 450.5C360.734 450.5 450.5 360.734 450.5 250C450.5 139.267 360.734 49.5 250 49.5ZM250 100.5C332.566 100.5 399.5 167.433 399.5 250C399.5 332.566 332.566 399.5 250 399.5C167.433 399.5 100.5 332.566 100.5 250C100.5 167.433 167.433 100.5 250 100.5ZM250 149.5C194.495 149.5 149.5 194.495 149.5 250C149.5 305.504 194.495 350.5 250 350.5C305.504 350.5 350.5 305.504 350.5 250C350.5 194.495 305.504 149.5 250 149.5ZM250 200.5C277.339 200.5 299.5 222.661 299.5 250C299.5 277.339 277.339 299.5 250 299.5C222.661 299.5 200.5 277.339 200.5 250C200.5 222.661 222.661 200.5 250 200.5Z" stroke="white"/>
</svg>
