<svg width="389" height="294" viewBox="0 0 389 294" fill="none" xmlns="http://www.w3.org/2000/svg">
<path fill-rule="evenodd" clip-rule="evenodd" d="M11.1407 93.6696L211.931 253.82C219.338 259.727 230.206 257.389 233.748 249.126L329.77 25.1192C334.184 14.8223 324.302 3.53926 312.999 5.97091L16.1873 69.8275C4.88474 72.2591 1.91102 86.308 11.1407 93.6696ZM210.687 255.311C219.153 262.062 231.574 259.39 235.622 249.946L331.644 25.9397C336.688 14.1719 325.394 1.27692 312.477 4.05595L15.665 67.9125C2.74784 70.6915 -0.650724 86.7474 9.89748 95.1606L210.687 255.311Z" stroke="white" stroke-width="2"/>
<path fill-rule="evenodd" clip-rule="evenodd" d="M72.1875 98.8279L203.669 205.539C207.919 208.988 214.218 207.633 216.22 202.838L278.149 54.5171C280.603 48.6386 274.965 42.2564 268.539 43.639L75.1281 85.2496C68.7017 86.6322 66.9765 94.5986 72.1875 98.8279ZM202.412 207.018C207.724 211.33 215.598 209.636 218.101 203.643L280.029 55.3217C283.097 47.9736 276.049 39.9958 268.016 41.724L74.6059 83.3347C66.5729 85.0629 64.4163 95.0209 70.9301 100.308L202.412 207.018Z" stroke="white" stroke-width="2"/>
<path fill-rule="evenodd" clip-rule="evenodd" d="M118.976 110.661L193.057 165.806C197.213 168.899 203.083 167.636 205.185 163.196L242.642 84.0555C245.434 78.1563 239.757 71.4485 233.171 72.8654L121.633 96.8619C115.047 98.2788 113.454 106.551 118.976 110.661ZM191.87 167.34C197.065 171.207 204.404 169.629 207.03 164.079L244.488 84.938C247.978 77.564 240.881 69.1793 232.649 70.9505L121.111 94.9469C112.878 96.7181 110.888 107.058 117.79 112.196L191.87 167.34Z" stroke="white" stroke-width="2"/>
</svg>
