<svg width="500" height="500" viewBox="0 0 500 500" fill="none" xmlns="http://www.w3.org/2000/svg">
<path d="M375 110.89C443.71 110.89 499.5 173.118 499.5 250C499.5 326.883 443.71 389.11 375 389.11C334.974 389.11 305.647 372.189 282.961 347.337L281.886 346.147C261.833 323.748 246.969 294.986 233.93 268.835L231.346 263.642L230.579 262.104C216.253 233.299 203.677 208.373 187.49 189.957L186.717 189.085C171.196 171.75 152.52 160.657 125 160.657C80.7415 160.657 44.9541 200.711 44.9541 250C44.9541 299.289 80.7415 339.343 125 339.343C154.405 339.343 180.079 321.65 193.99 295.33C200.83 309.061 209.02 325.166 218.886 341.359C196.053 370.63 162.452 389.11 125 389.11C56.291 389.11 0.5 326.883 0.5 250C0.500015 173.118 56.291 110.89 125 110.89C165.026 110.89 194.353 127.811 217.039 152.664L218.114 153.854C238.167 176.251 253.031 205.014 266.07 231.165L268.654 236.358L269.421 237.896C283.747 266.701 296.323 291.627 312.511 310.042L313.284 310.914C328.804 328.25 347.48 339.343 375 339.343C419.258 339.343 455.046 299.289 455.046 250C455.046 200.711 419.258 160.657 375 160.657C345.595 160.657 319.922 178.349 306.011 204.669C299.17 190.937 290.979 174.832 281.113 158.639C303.947 129.369 337.547 110.89 375 110.89Z" stroke="white"/>
<path d="M400.799 375C400.799 443.71 338.571 499.5 261.688 499.5C184.806 499.5 122.578 443.71 122.578 375C122.578 334.974 139.5 305.647 164.352 282.961L165.541 281.886C187.94 261.833 216.703 246.969 242.854 233.93L248.047 231.346L249.585 230.579C278.389 216.253 303.316 203.677 321.731 187.49L322.604 186.717C339.938 171.196 351.031 152.52 351.031 125C351.031 80.7415 310.978 44.9541 261.688 44.9541C212.399 44.9541 172.346 80.7415 172.346 125C172.346 154.405 190.038 180.079 216.358 193.99C202.627 200.83 186.522 209.02 170.329 218.886C141.059 196.053 122.578 162.452 122.578 125C122.578 56.291 184.806 0.5 261.688 0.5C338.571 0.500015 400.799 56.291 400.799 125C400.799 165.026 383.877 194.353 359.024 217.039L357.835 218.114C335.438 238.167 306.674 253.031 280.523 266.07L275.33 268.654L273.792 269.421C244.988 283.747 220.061 296.323 201.646 312.511L200.774 313.284C183.438 328.804 172.346 347.48 172.346 375C172.346 419.258 212.399 455.046 261.688 455.046C310.978 455.046 351.031 419.258 351.031 375C351.031 345.595 333.34 319.922 307.02 306.011C320.752 299.17 336.857 290.979 353.05 281.113C382.319 303.947 400.799 337.547 400.799 375Z" stroke="white"/>
</svg>
