<svg width="459" height="444" viewBox="0 0 459 444" fill="none" xmlns="http://www.w3.org/2000/svg">
<path d="M229.141 0.5C302.349 0.500158 361.719 61.392 361.719 136.533C361.719 149.68 359.895 162.408 356.492 174.456L356.353 174.95L356.851 175.076C368.346 177.982 379.642 182.524 390.422 188.779L391.463 189.39V189.391C454.38 226.658 476.268 308.855 440.841 373.694L439.993 375.223C403.664 439.779 323.563 462.218 260.384 425.883L258.895 425.014C247.802 418.442 237.973 410.461 229.506 401.416L229.141 401.025L228.775 401.416C220.575 410.179 211.092 417.944 200.421 424.396L199.384 425.016C136.476 462.277 56.1671 440.634 19.1533 376.742L18.2871 375.225C-18.0449 310.661 3.06858 228.252 65.3379 190.28L66.8164 189.392C77.91 182.82 89.5619 178.078 101.429 175.078L101.928 174.952L101.788 174.457C98.3848 162.409 96.5615 149.68 96.5615 136.533C96.5617 61.9791 155.007 1.45208 227.427 0.510742L229.141 0.5ZM121.5 216.427C110.559 217.892 99.7024 221.483 89.4746 227.368L88.4863 227.945C46.1473 253.025 31.4324 308.319 55.2617 351.932L55.832 352.96C80.2733 396.393 134.184 411.507 176.713 387.046L177.715 386.461C191.374 378.37 202.116 367.181 209.644 354.267L210.362 353.012C223.947 328.837 226.407 298.945 215.518 272.126L215.405 271.85L215.107 271.817L213.318 271.611C175.82 267.032 143.135 246.39 121.974 216.633L121.799 216.387L121.5 216.427ZM325.228 215.66C298.019 215.678 271.55 228.445 254.354 251.533L254.182 251.766L254.297 252.031C269.939 288.09 269.055 328.178 254.283 362.396L254.169 362.662L254.342 362.894C261.049 371.878 269.503 379.728 279.584 385.87L280.564 386.459C322.912 411.543 376.961 396.964 401.864 353.979L402.447 352.957C426.885 309.533 412.692 254.094 370.788 228.541L369.793 227.943C356.135 219.854 341.315 215.902 326.646 215.671L325.228 215.66ZM229.141 45.0107C179.854 45.0107 139.921 85.9991 139.921 136.533C139.921 152.71 143.994 167.849 151.133 180.995L151.834 182.261C165.45 206.418 189.457 223.556 217.55 227.294L217.85 227.334L218.023 227.088C240.638 195.162 274.91 175.908 311.167 171.924L311.464 171.892L311.576 171.614C315.945 160.826 318.359 148.987 318.359 136.533C318.359 85.9992 278.426 45.0109 229.141 45.0107Z" stroke="white"/>
</svg>
