<svg width="390" height="294" viewBox="0 0 390 294" fill="none" xmlns="http://www.w3.org/2000/svg">
<path fill-rule="evenodd" clip-rule="evenodd" d="M228.485 249.227C233.026 230.872 240.508 203.33 248.894 183.503C250.809 178.977 252.53 174.73 254.17 170.682C261.939 151.505 267.895 136.806 284.052 118.124C289.563 111.751 295.165 107.584 300.433 103.664C300.766 103.416 301.097 103.17 301.427 102.924C306.979 98.7835 312.186 94.7444 317.125 88.2943C326.52 76.0244 331.688 57.7608 334.481 41.2629C335.661 34.2922 332.127 28.5497 326.307 25.0898C320.43 21.5955 312.256 20.4786 304.488 23.0502C295.583 25.9985 286.173 28.6043 277.765 29.8669C266.636 31.538 257.568 30.5442 249.038 29.6095C248.639 29.5657 248.241 29.5221 247.844 29.4789C238.961 28.512 230.523 27.736 220.066 29.8375C209.746 31.9116 202.654 35.9192 195.182 40.2177L194.786 40.4451C187.437 44.674 179.65 49.155 168.43 51.612C155.102 54.5308 144.02 52.9224 133.63 51.4143C133.333 51.3712 133.036 51.3281 132.739 51.2852C122.059 49.7392 112.019 48.4273 99.8913 51.5811C89.9845 54.1574 83.3722 58.4183 76.4513 63.0456C76.1783 63.2281 75.9047 63.4113 75.6303 63.595C68.9564 68.0635 61.84 72.8283 51.4325 76.0488C45.3846 77.9203 38.3591 79.3139 31.3046 80.358C22.9665 81.5921 16.3619 86.2933 13.3666 91.8287C10.4298 97.2559 10.9469 103.411 16.6737 108.278C22.8082 113.493 29.4324 117.809 36.0402 119.941C40.6516 121.429 44.5994 121.514 48.9955 121.609L49.4211 121.618C53.9785 121.717 58.9838 121.881 64.7536 124.085C76.9624 128.748 82.7802 136.386 87.2573 144.797C88.6226 147.361 89.8444 149.937 91.0694 152.52C93.9261 158.544 96.8007 164.605 101.554 170.647C107.129 177.733 110.857 185.052 114.243 191.696C115.67 194.497 117.036 197.179 118.454 199.672C123.308 208.21 129.046 215.281 140.476 220.127C146.089 222.507 151.061 222.759 156.611 222.991L156.899 223.003C162.353 223.231 168.384 223.483 175.151 226.236C182.637 229.281 190.187 234.974 196.242 240.287C202.349 245.648 207.176 250.839 209.207 253.099C209.77 253.725 210.377 254.273 211.047 254.751C217.261 259.181 226.76 256.203 228.485 249.227ZM209.108 256.87C217.147 262.601 229.296 258.718 231.5 249.808C236.039 231.459 243.483 204.084 251.786 184.455C253.727 179.865 255.465 175.579 257.113 171.512C264.869 152.381 270.658 138.099 286.505 119.776C291.806 113.647 297.175 109.652 302.456 105.721C308.381 101.312 314.195 96.9847 319.682 89.819C329.483 77.018 334.728 58.2403 337.533 41.6652C340.281 25.4279 320.823 14.7334 303.404 20.5004C294.579 23.422 285.378 25.9612 277.247 27.1821C266.575 28.7847 257.904 27.8357 249.345 26.8987C240.037 25.8798 230.859 24.8753 219.381 27.1821C208.327 29.4036 200.777 33.7472 193.194 38.1104C185.812 42.3576 178.397 46.6234 167.687 48.9688C154.983 51.7509 144.449 50.2233 134.002 48.7083C123.046 47.1196 112.186 45.5447 99.0189 48.9689C88.1534 51.7944 81.0371 56.5578 73.8322 61.3803C67.131 65.8658 60.3533 70.4024 50.4113 73.4789C44.5926 75.2795 37.7563 76.6417 30.7941 77.6722C12.174 80.4281 0.934755 98.6817 14.5327 110.24C20.8078 115.574 27.7954 120.181 34.9803 122.499C40.0765 124.144 44.4729 124.237 48.8151 124.329C53.5106 124.429 58.1427 124.527 63.5276 126.584C78.038 132.127 82.785 142.129 88.0865 153.3C90.9955 159.429 94.0714 165.911 99.0189 172.2C104.425 179.072 107.953 186 111.288 192.552C117.541 204.832 123.121 215.791 139.139 222.582C145.431 225.249 151.018 225.483 156.625 225.718C162.124 225.949 167.641 226.18 173.859 228.709C187.817 234.387 202.808 250.362 206.79 254.791C207.48 255.559 208.244 256.254 209.108 256.87Z" fill="white"/>
<path fill-rule="evenodd" clip-rule="evenodd" d="M274.341 92.3029C277.495 84.553 279.461 74.2661 280.66 65.123C281.642 57.6416 273.121 51.9245 264.545 54.6318C250.374 59.1058 231.793 64.5246 216.931 67.2929C200.069 70.4335 186.389 70.3274 173.093 70.2243C172.808 70.222 172.524 70.2198 172.239 70.2176C158.681 70.114 145.436 70.0845 129.028 73.41C116.633 75.9221 101.558 80.6048 88.5467 85.0736C79.2692 88.26 78.1788 100.061 87.1962 105.237C98.5274 111.742 111.155 119.887 119.801 128.14C129.457 137.357 133.922 146.656 138.174 155.512L138.375 155.93C142.692 164.918 146.876 173.459 156.027 181.891C166.781 191.799 184.603 201.546 197.822 208.026C204.368 211.235 212.611 208.1 214.87 201.476C220.71 184.359 230.962 156.665 242.097 137.592C246.977 129.233 252.374 123.092 257.421 117.35C258.178 116.488 258.928 115.636 259.666 114.786C265.33 108.269 270.476 101.801 274.341 92.3029ZM196.323 210.406C204.742 214.534 215.049 210.399 217.825 202.261C223.664 185.146 233.848 157.668 244.841 138.839C249.582 130.719 254.8 124.779 259.847 119.035C266.415 111.558 272.692 104.414 277.246 93.2233C280.523 85.1697 282.52 74.6293 283.726 65.4362C285.003 55.7012 273.962 48.7664 263.506 52.0676C249.354 56.5354 230.939 61.9005 216.293 64.6282C199.763 67.7071 186.37 67.6035 173.053 67.5005C159.212 67.3934 145.452 67.2869 128.337 70.7558C115.717 73.3134 100.474 78.0548 87.4274 82.5357C75.4376 86.6536 74.7286 101.329 85.5133 107.52C96.7901 113.993 109.156 121.99 117.535 129.988C126.824 138.855 131.109 147.78 135.378 156.67C139.75 165.775 144.105 174.843 153.798 183.774C164.901 194.005 183.087 203.918 196.323 210.406Z" fill="white"/>
<path fill-rule="evenodd" clip-rule="evenodd" d="M222.526 86.9422C217.502 88.5692 212.414 90.0511 207.802 91.0958C197.065 93.5275 188.413 94.043 179.908 94.3889C179.047 94.4239 178.188 94.4572 177.329 94.4905C169.713 94.7858 162.104 95.0808 152.811 96.5834C149.701 97.0862 146.315 97.7084 142.815 98.4008C137.393 99.4734 134.213 103.305 133.57 107.945C132.92 112.635 134.956 117.78 139.664 120.899C142.472 122.759 145.127 124.695 147.449 126.663C153.598 131.877 157.066 136.986 160.346 141.832L160.384 141.889C163.647 146.711 166.728 151.264 172.16 155.957C175.716 159.03 180.43 162.31 185.174 165.332C191.781 169.539 201.431 166.185 204.046 158.512C205.221 155.063 206.575 151.593 208.073 148.625C211.332 142.169 215.147 137.762 218.919 133.583C219.212 133.258 219.505 132.935 219.797 132.613C223.258 128.791 226.619 125.079 229.772 119.857C233.201 114.179 236.475 107.05 239.332 99.9951C241.067 95.711 239.453 91.7239 236.086 89.108C232.679 86.4615 227.561 85.3116 222.526 86.9422ZM183.368 167.54C192.064 173.078 203.913 168.358 207.001 159.296C208.157 155.904 209.468 152.555 210.892 149.733C214.232 143.117 218.176 138.763 222.224 134.295C225.676 130.485 229.204 126.59 232.496 121.138C236.028 115.289 239.361 108.018 242.238 100.911C246.653 90.0081 233.78 80.3965 221.463 84.3856C216.491 85.9955 211.51 87.4444 207.035 88.4579C195.549 91.0594 186.521 91.4087 177.189 91.7699C169.579 92.0644 161.767 92.3667 152.255 93.9046C149.094 94.4156 145.667 95.0457 142.14 95.7434C128.263 98.4888 126.438 115.542 137.811 123.077C140.549 124.89 143.102 126.755 145.311 128.627C151.186 133.608 154.48 138.476 157.783 143.357C161.028 148.153 164.282 152.962 170 157.903C173.718 161.115 178.574 164.487 183.368 167.54Z" fill="white"/>
</svg>
