<svg width="500" height="500" viewBox="0 0 500 500" fill="none" xmlns="http://www.w3.org/2000/svg">
<path d="M349.293 400L250 499.293L150.707 400L250 300.707L349.293 400ZM199.293 250L100 349.293L0.707031 250L100 150.707L199.293 250ZM499.293 250L400 349.293L300.707 250L400 150.707L499.293 250ZM250.205 200.501C277.381 200.611 299.387 222.618 299.498 249.794L299.293 250L299.498 250.205C299.388 277.381 277.381 299.388 250.205 299.498L250 299.293L249.794 299.498C222.618 299.387 200.611 277.381 200.501 250.205L200.707 250L200.501 249.794C200.612 222.619 222.619 200.612 249.794 200.501L250 200.707L250.205 200.501ZM349.293 100L250 199.293L150.707 100L250 0.707031L349.293 100Z" stroke="white"/>
</svg>
